<?xml version="1.0" ?><svg data-name="Layer 1" id="Layer_1" viewBox="0 0 100 100" xmlns="http://www.w3.org/2000/svg"><title/><path d="M50,5A45,45,0,1,0,94.99994,50,45.00058,45.00058,0,0,0,50,5ZM80.40546,80.40552A42.99951,42.99951,0,1,1,93,50,42.86133,42.86133,0,0,1,80.40546,80.40552Z"/><path d="M77.78345,47.76355l-28.816-18.35889a2.54693,2.54693,0,0,0-1.37195-.4046,2.58853,2.58853,0,0,0-1.81012.74756A2.64071,2.64071,0,0,0,45,31.64111V68.35889a2.64043,2.64043,0,0,0,.7854,1.89343,2.588,2.588,0,0,0,1.81012.74756,2.54661,2.54661,0,0,0,1.372-.4046L77.78339,52.23645a2.66386,2.66386,0,0,0,.00006-4.4729Zm-1.07483,2.78619L47.89282,68.90857a.54124.54124,0,0,1-.2973.09131.591.591,0,0,1-.40778-.17353.63427.63427,0,0,1-.1878-.46746V31.64111a.63427.63427,0,0,1,.1878-.46746.59088.59088,0,0,1,.40778-.17359.54173.54173,0,0,1,.29742.09143l28.8158,18.35883a.66415.66415,0,0,1-.00012,1.09942Z"/><path d="M36,29H32a3.00042,3.00042,0,0,0-3,3V68a3.00045,3.00045,0,0,0,3,3h4a3.00036,3.00036,0,0,0,2.99994-3V32A3.00033,3.00033,0,0,0,36,29Zm1,39a1.002,1.002,0,0,1-1,1H32a1.002,1.002,0,0,1-1-1V32a1.00193,1.00193,0,0,1,1-1h4a1.00193,1.00193,0,0,1,1,1Z"/></svg>