<svg width="20" height="20" viewBox="0 0 20 20" fill="none" xmlns="http://www.w3.org/2000/svg">
<path d="M10 1C8.21998 0.999998 6.47992 1.52784 4.99988 2.51677C3.51984 3.5057 2.36628 4.91131 1.68509 6.55584C1.0039 8.20038 0.825669 10.01 1.17294 11.7558C1.5202 13.5016 2.37737 15.1053 3.63604 16.364C4.89471 17.6226 6.49836 18.4798 8.24419 18.8271C9.99002 19.1743 11.7996 18.9961 13.4442 18.3149C15.0887 17.6337 16.4943 16.4802 17.4832 15.0001C18.4722 13.5201 19 11.78 19 10C19 7.61306 18.0518 5.3239 16.3639 3.63608C14.6761 1.94826 12.387 1.00003 10 1V1ZM16.0811 16.0811C14.6742 17.488 12.823 18.3635 10.843 18.5585C8.86293 18.7535 6.87652 18.2559 5.22222 17.1505C3.56791 16.0451 2.34805 14.4003 1.77051 12.4964C1.19296 10.5924 1.29345 8.5471 2.05486 6.70892C2.81626 4.87075 4.19147 3.35345 5.94617 2.41555C7.70087 1.47765 9.72649 1.17718 11.6779 1.56535C13.6293 1.95351 15.3857 3.00628 16.6479 4.54429C17.9101 6.08229 18.6 8.01037 18.6 10C18.6015 11.1296 18.3798 12.2483 17.9475 13.292C17.5152 14.3356 16.8809 15.2834 16.0811 16.0811V16.0811Z" fill="black"/>
<path d="M15.5567 9.5525L9.7935 5.88072C9.71164 5.82809 9.61642 5.80001 9.51911 5.7998C9.38351 5.80031 9.25352 5.85399 9.15708 5.94932C9.10698 5.99878 9.06728 6.05777 9.0403 6.1228C9.01333 6.18784 8.99963 6.25761 9.00001 6.32801V13.6716C8.99962 13.742 9.01332 13.8117 9.0403 13.8768C9.06728 13.9418 9.10698 14.0008 9.15709 14.0503C9.25352 14.1456 9.38351 14.1993 9.51911 14.1998C9.61643 14.1996 9.71165 14.1715 9.79351 14.1188L15.5567 10.4471C15.6314 10.3988 15.6927 10.3325 15.7352 10.2544C15.7778 10.1763 15.8 10.0887 15.8 9.9998C15.8 9.91085 15.7778 9.82333 15.7353 9.7452C15.6928 9.66707 15.6314 9.60082 15.5567 9.5525V9.5525ZM15.3417 10.1097L9.57857 13.7815C9.56096 13.7933 9.54029 13.7996 9.51911 13.7998C9.48845 13.7992 9.45921 13.7868 9.43756 13.7651C9.42524 13.7529 9.41556 13.7383 9.4091 13.7222C9.40264 13.7061 9.39954 13.6889 9.4 13.6716V6.32801C9.39954 6.31069 9.40264 6.29346 9.4091 6.27738C9.41556 6.2613 9.42524 6.24671 9.43756 6.23452C9.45921 6.21281 9.48845 6.20036 9.51911 6.1998C9.5403 6.19995 9.56098 6.20631 9.5786 6.21809L15.3418 9.88986C15.3597 9.90203 15.3744 9.91842 15.3846 9.93759C15.3947 9.95675 15.4 9.97811 15.4 9.99981C15.4 10.0215 15.3947 10.0429 15.3846 10.062C15.3744 10.0812 15.3597 10.0976 15.3417 10.1097V10.1097Z" fill="black"/>
<path d="M7.19999 5.7998H6.39999C6.24086 5.79983 6.08827 5.86305 5.97575 5.97557C5.86323 6.08808 5.80001 6.24068 5.79999 6.3998V13.5998C5.80001 13.7589 5.86323 13.9115 5.97575 14.024C6.08827 14.1366 6.24087 14.1998 6.39999 14.1998H7.19999C7.35911 14.1998 7.51171 14.1366 7.62422 14.024C7.73674 13.9115 7.79996 13.7589 7.79998 13.5998V6.3998C7.79996 6.24068 7.73674 6.08808 7.62422 5.97556C7.51171 5.86305 7.35911 5.79983 7.19999 5.7998V5.7998ZM7.39999 13.5998C7.39988 13.6528 7.37878 13.7036 7.34129 13.7411C7.30381 13.7786 7.253 13.7997 7.19999 13.7998H6.39999C6.34698 13.7997 6.29617 13.7786 6.25868 13.7411C6.2212 13.7036 6.20009 13.6528 6.19999 13.5998V6.3998C6.20009 6.34679 6.22119 6.29598 6.25868 6.2585C6.29616 6.22101 6.34698 6.19991 6.39999 6.1998H7.19999C7.253 6.19991 7.30381 6.22101 7.3413 6.2585C7.37878 6.29598 7.39989 6.34679 7.39999 6.3998V13.5998Z" fill="black"/>
</svg>
